<?xml version="1.0" standalone="no"?><!DOCTYPE svg PUBLIC "-//W3C//DTD SVG 1.1//EN" "http://www.w3.org/Graphics/SVG/1.1/DTD/svg11.dtd"><svg t="1600846926380" class="icon" viewBox="0 0 1024 1024" version="1.1" xmlns="http://www.w3.org/2000/svg" p-id="6565" xmlns:xlink="http://www.w3.org/1999/xlink" width="200" height="200"><defs><style type="text/css"></style></defs><path  d="M746.666667 533.333333c117.824 0 213.333333 95.509333 213.333333 213.333334s-95.509333 213.333333-213.333333 213.333333H106.666667a42.666667 42.666667 0 0 1-42.666667-42.666667V576a42.666667 42.666667 0 0 1 42.666667-42.666667h640z m0 85.333334H149.333333v256h597.333334a128 128 0 1 0 0-256z m0 64a64 64 0 1 1 0 128 64 64 0 0 1 0-128zM625.706667 35.093333l1.386666 2.069334 236.885334 404.736a21.333333 21.333333 0 0 1-5.546667 27.797333l-2.090667 1.386667-35.370666 20.714666a21.333333 21.333333 0 0 1-27.797334-5.546666l-1.386666-2.090667-194.410667-332.138667a21.333333 21.333333 0 0 0-26.858667-8.810666l-2.218666 1.109333-147.157334 84.970667a21.333333 21.333333 0 0 1-27.776-5.717334l-1.365333-2.090666-20.970667-36.330667a21.333333 21.333333 0 0 1 5.717334-27.776l2.090666-1.365333L598.016 29.44a21.333333 21.333333 0 0 1 27.690667 5.632zM246.976 178.090667l2.218667 1.130666L654.08 416.384a21.333333 21.333333 0 0 1 8.746667 26.965333l-1.130667 2.218667-21.077333 35.989333-1.365334 2.069334a21.333333 21.333333 0 0 1-25.386666 6.762666l-2.432-1.216-332.266667-194.645333a21.333333 21.333333 0 0 0-27.882667 5.674667l-1.386666 2.069333-85.482667 148.053333a21.333333 21.333333 0 0 1-26.901333 8.938667l-2.24-1.109333-35.434667-20.48a21.333333 21.333333 0 0 1-8.938667-26.901334l1.130667-2.24L219.946667 186.965333a21.333333 21.333333 0 0 1 27.029333-8.874666z" p-id="6566"></path></svg>