<?xml version="1.0" standalone="no"?><!DOCTYPE svg PUBLIC "-//W3C//DTD SVG 1.1//EN" "http://www.w3.org/Graphics/SVG/1.1/DTD/svg11.dtd"><svg t="1600871239399" class="icon" viewBox="0 0 1024 1024" version="1.1" xmlns="http://www.w3.org/2000/svg" p-id="16347" xmlns:xlink="http://www.w3.org/1999/xlink" width="200" height="200"><defs><style type="text/css"></style></defs><path d="M837.457 44.629H186.545c-78.218 0-141.922 63.652-141.922 141.919v650.903c0 78.229 63.704 141.92 141.922 141.92h650.912c78.243 0 141.92-63.691 141.92-141.92V186.548c0-78.267-63.677-141.919-141.92-141.919m64.511 792.822c0 35.58-28.931 64.508-64.511 64.508H186.545c-35.583 0-64.51-28.928-64.51-64.508V186.548c0-35.58 28.927-64.508 64.51-64.508h650.912c35.58 0 64.511 28.929 64.511 64.508v650.903z" p-id="16348"></path><path d="M522.37 463.927c-43.216-3.642-94.974-18.119-96.007-66.627-0.431-20.046 9.676-34.661 18.168-43.38 18.294-18.646 47.449-29.355 79.956-29.355 61.056 0 88.875 34.157 88.875 65.895 0 19.668 15.926 35.58 35.582 35.58 19.63 0 35.58-15.912 35.58-35.58 0-59.885-42.561-120.426-124.279-134.146v-32.369c0-19.655-15.927-35.581-35.583-35.581-19.629 0-35.58 15.926-35.58 35.581v32.519c-37.547 6.426-71.211 22.994-95.377 47.689-25.577 26.081-39.236 59.734-38.529 94.647 1.662 76.87 61.938 127.745 162.431 136.138 66.552 3.402 111.58 37.029 109.489 81.822-1.938 41.211-44.047 71.123-100.164 71.123-54.381 0-109.313-23.826-109.313-77.008 0-19.631-15.926-35.582-35.531-35.582-19.681 0-35.632 15.951-35.632 35.582 0 76.428 56.999 132.684 142.626 145.41v39.006c0 19.668 15.951 35.596 35.58 35.596 19.656 0 35.583-15.928 35.583-35.596V756.51c78.442-11.893 134.611-65.592 137.887-136.426 3.478-72.963-56.218-150.072-175.762-156.157" p-id="16349"></path></svg>