<?xml version="1.0" standalone="no"?><!DOCTYPE svg PUBLIC "-//W3C//DTD SVG 1.1//EN" "http://www.w3.org/Graphics/SVG/1.1/DTD/svg11.dtd"><svg t="1600847104974" class="icon" viewBox="0 0 1024 1024" version="1.1" xmlns="http://www.w3.org/2000/svg" p-id="13906" xmlns:xlink="http://www.w3.org/1999/xlink" width="200" height="200"><defs><style type="text/css"></style></defs><path d="M497.875989 464.039358a47.906518 47.906518 0 0 1-33.936832-14.042826l-131.6515-131.432082a47.906518 47.906518 0 1 1 68.019942-67.873662L531.73968 382.122869a47.906518 47.906518 0 0 1-33.936831 81.916489z m28.524492 0a47.906518 47.906518 0 0 1-34.009971-81.916489l131.578361-131.432081a48.052798 48.052798 0 0 1 67.873662 67.873662L560.264172 449.996532a47.833379 47.833379 0 0 1-34.009971 14.042826z m157.250403 62.168765h-343.025299a47.979658 47.979658 0 1 1 0-95.886177h343.025299a47.979658 47.979658 0 1 1 0 95.959316z m0 159.956573h-343.025299a47.979658 47.979658 0 1 1 0-95.959316h343.025299a47.979658 47.979658 0 1 1 0 95.959316z m-171.512649 133.187435a47.979658 47.979658 0 0 1-48.052798-47.979658V482.763127a47.979658 47.979658 0 0 1 96.032456 0v288.609346a47.979658 47.979658 0 0 1-47.979658 47.979658zM511.991955 1023.997074a511.173521 511.173521 0 0 1-204.791223-43.006156C48.286114 868.063186-70.200237 565.776712 42.800635 307.227793A508.467351 508.467351 0 0 1 325.119964 35.660003a509.052469 509.052469 0 0 1 391.882634 7.387112 47.979658 47.979658 0 1 1-38.398355 87.987086 413.678271 413.678271 0 0 0-318.377212-6.070597 413.239433 413.239433 0 0 0-229.43931 220.662543 416.165021 416.165021 0 0 0 762.627887 332.785738 416.969558 416.969558 0 0 0-70.214133-442.641601 47.979658 47.979658 0 1 1 71.823207-63.704698 513.148294 513.148294 0 0 1 86.304873 544.744654 508.540491 508.540491 0 0 1-282.319329 271.56779A512.051198 512.051198 0 0 1 511.991955 1023.997074z" fill="#333333" p-id="13907"></path></svg>