<?xml version="1.0" standalone="no"?><!DOCTYPE svg PUBLIC "-//W3C//DTD SVG 1.1//EN" "http://www.w3.org/Graphics/SVG/1.1/DTD/svg11.dtd"><svg t="1602548662547" class="icon" viewBox="0 0 1291 1024" version="1.1" xmlns="http://www.w3.org/2000/svg" p-id="5634" xmlns:xlink="http://www.w3.org/1999/xlink" width="252.1484375" height="200"><defs><style type="text/css"></style></defs><path d="M1000.69977991 711.60671006a17.79583711 17.79583711 0 0 0 35.43522627 0 17.79583711 17.79583711 0 0 0-17.67850137-17.83494844 17.79583711 17.79583711 0 0 0-17.7567249 17.83494844z m71.57446436-216.75720323a77.24566494 77.24566494 0 0 0-55.10842646-22.91947295 78.22345869 78.22345869 0 0 0-77.83234102 78.30168135c0 8.68280362 7.04011114 15.80113828 15.64469121 15.80113829 8.60458008 0 15.72291474-7.11833467 15.72291562-15.80113829 0-25.81374112 20.88566367-46.85585185 46.58206904-46.85585185a46.89496318 46.89496318 0 0 1 10.24727344 92.46012803 33.08852285 33.08852285 0 0 0-25.81374111 32.46273544v25.61818272c0 8.64369229 7.11833467 15.76202695 15.72291475 15.76202696 8.60458008 0 15.68380342-7.11833467 15.68380341-15.76202696v-25.61818272c0-0.78223447 0.50845253-1.52535761 1.40802276-1.64269248a78.34079356 78.34079356 0 0 0 37.70370615-131.80652754z m-940.55886299 169.3537875c4.14584297-8.64369229 11.34240117-11.06861924 20.33809892-10.44283183 4.45873711 0.27378193 8.99569776 0 14.5886748 0v-18.69540644c0-9.81704443 4.92807744-15.17535088 13.80644034-15.17535088 9.62148516 0 14.54956347 5.24097158 14.54956348 15.17535087v18.06961905c7.97879268 0.6257874 15.44913281 0.6257874 22.68480322 1.91647441 8.21346328 1.40802187 13.02420586 8.13523974 12.24197139 14.86245674-0.97779287 8.33079815-6.68810567 13.41532354-15.56646856 13.80644033-3.12893877 0.11733487-6.45343506 0-9.62148516 0h-9.73882089c0 7.11833467 0.11733487 13.7282168 0 20.3380998-0.11733487 5.74942412-2.15114502 10.83394863-7.82234561 12.75042305-5.20186026 1.64269248-13.68910547 2.15114502-17.20916103-3.16805009a19.55586445 19.55586445 0 0 1-3.32449718-8.68280362c-0.50845253-6.60988213-0.27378193-13.37621133-0.39111679-20.10342832 0-0.11733487-0.2346706-0.39111768-0.86045801-1.17335214-4.06761943 0-8.76102715-0.2346706-13.45443486 0-8.99569776 0.66489961-16.19225596-1.76002823-20.3380998-10.40371964 0.11733487-3.08982656 0.11733487-5.98409472 0.11733574-9.07392128zM133.8665263 62c10.48194316 3.91117325 13.02420586 9.54326162 12.90687012 20.37721114v14.7842332c6.9618876 0 13.29798779-0.15644707 19.75142373 0 6.3361002 0.11733487 11.26417763 3.44183203 13.14154072 9.26947969 1.79913955 5.24097158 2.15114502 11.34240117-2.7378211 15.41002148a17.01360175 17.01360175 0 0 1-8.99569775 3.71561397c-6.84455273 0.50845253-13.68910547 0.11733487-21.04210986 0.11733573 0 6.88366406 0.2346706 13.1024294-0.11733575 19.24297032-0.6257874 10.7948373-7.11833467 16.66159629-15.05801513 16.03580889-8.76102715-0.6257874-14.31489287-6.10142959-14.5886748-15.91847315-0.11733487-6.25787666 0-12.51575332 0-19.36030606H98.00107015c-9.34770323 0-14.27578154-4.18495518-14.5495626-12.24197138C83.21683695 102.98909199 88.02757952 97.5134498 97.64906468 97.20055654c3.12893877-0.15644707 6.45343506 0 9.62148604 0h9.77793222V82.7292166c0-12.98509365 1.95558662-16.19225596 12.90687012-20.65099306C131.16781653 62 132.53672708 62 133.82741409 62zM993.97256205 917.3735167h13.29798866c6.68810567 0.11733487 9.85615576 3.05071523 9.97349062 9.5432625 0.15644707 6.49254727-3.28538496 10.83394863-9.38681542 11.22506631-4.30229004 0.2346706-8.60458008 0-13.88466387 0v12.20285918c-0.11733487 7.15744688-3.67650263 11.22506631-10.16904902 11.2250663-6.80544052 0-10.48194316-3.83294971-10.59927891-11.34240117v-12.12463652h-11.38151338c-7.97879268 0-11.92907724-3.67650263-11.77263018-10.79483731 0.11733487-7.62678721 2.73782109-10.05171416 11.34240117-10.05171415h11.92907726v-13.49354619c0.11733487-6.49254727 3.7938375-10.5601667 9.89526797-11.06862012 4.92807744-0.39111768 10.24727344 4.69340771 10.75572509 10.44283184 0.2346706 2.38581562 0 4.69340771 0 7.11833466v7.11833467z m30.50714881-758.9631041c0 5.20186026 0.11733487 9.54326162 0 13.7282168-0.27378193 5.98409472-4.41962578 9.69970869-10.36460829 9.69970869-5.98409472 0-9.89526709-3.71561396-10.28638477-9.77793223-0.11733487-2.19025722 0-4.38051357 0-6.53165859v-7.11833467c-4.41962578 0-8.48724521 0.11733487-12.51575332 0-6.9618876-0.15644707-10.7557251-3.95028457-10.7557251-10.5601667 0-7.66589854 2.65959756-10.20816123 10.48194317-10.20816211h12.67220039c0-4.84985479-0.11733487-9.15214482 0-13.49354619 0.27378193-5.86675898 5.31919511-11.45973691 10.01260283-11.22506631 5.67120058 0.27378193 10.3646083 5.24097158 10.63839024 11.34240118 0.11733487 4.06761943 0 8.29168682 0 13.37621132h13.41532265c6.3361002 0.11733487 9.62148516 3.1680501 9.85615576 9.03480996 0.27378193 6.64899433-3.01160302 11.06861924-8.99569775 11.73351885-2.38581562 0.2346706-4.69340771 0-7.04011113 0h-7.11833468zM860.44511937 406.96545166H565.69912806a23.31059062 23.31059062 0 0 1-23.31059062-23.42792637c0-12.98509365 10.40371963-23.42792549 23.31059062-23.42792549h294.86332616a23.4670377 23.4670377 0 0 1-0.11733485 46.85585186z m-157.11181612 133.09721367H565.69912806a23.31059062 23.31059062 0 0 1-23.31059062-23.46703681c0-12.94598232 10.40371963-23.38881416 23.31059062-23.38881417h137.63417519c12.90687099 0 23.2714793 10.44283184 23.27147842 23.42792549 0 12.98509365-10.3646083 23.42792549-23.27147842 23.42792549z m505.91021661 118.31298135a202.44231035 202.44231035 0 0 0-67.62417979-215.97496875V306.37008388a73.1389333 73.1389333 0 0 0-72.78692783-73.21715683h-552.6487336a73.1389333 73.1389333 0 0 0-72.7478165 73.21715683v294.90243839a73.1389333 73.1389333 0 0 0 72.7478165 73.25626816h314.6147499a200.4476124 200.4476124 0 0 0 129.02959424 119.21255069 198.68758417 198.68758417 0 0 0 126.83933789-3.95028458c0.39111768 2.54226269 1.17335214 5.08452451 2.42492696 7.50945234l69.22776093 128.99048204a21.82434521 21.82434521 0 0 0 29.64669083 8.91747421 22.05901494 22.05901494 0 0 0 8.87836201-29.80313701l-69.1495374-129.10781865a24.83594824 24.83594824 0 0 0-3.67650176-5.0845245 200.33027666 200.33027666 0 0 0 85.22445762-112.83733829z m-383.99895703-115.65338379a202.95076289 202.95076289 0 0 0-6.72721788 84.95067656h-302.33366631a26.32219365 26.32219365 0 0 1-26.20485878-26.36130586v-294.90243838c0-14.54956347 11.77263018-26.40041719 26.20485878-26.40041718h552.76606846c14.47133994 0 26.20485878 11.85085372 26.20485879 26.36130585V414.78779727a215.34918047 215.34918047 0 0 0-20.37721113-7.39211661c-106.11012128-31.83694717-217.7741083 28.78623281-249.53283194 135.36569444z m266.35087529 196.6146627a155.54734717 155.54734717 0 0 1-119.25166201 12.24197139 157.34648672 157.34648672 0 0 1-54.9519794-29.41202022 158.20694472 158.20694472 0 0 1-38.09482383-46.73851611c-0.11733487-0.27378193-0.2346706-0.6257874-0.50845254-0.89957022a154.33488369 154.33488369 0 0 1-17.32649678-56.79023027 158.87184433 158.87184433 0 0 1 34.92677461-117.53074688c12.90687099-15.64469209 28.47333867-28.55156221 46.46473419-38.32949443a155.54734717 155.54734717 0 0 1 119.29077422-12.24197138 154.80422402 154.80422402 0 0 1 79.35769862 55.14753867 157.77671573 157.77671573 0 0 1 25.69640537 140.95867148 158.87184433 158.87184433 0 0 1-29.25557313 55.26487353c-12.78953526 15.64469209-28.35600381 28.55156221-46.30828711 38.32949444z m-308.78710137 79.86615117H389.07055882a23.31059062 23.31059062 0 0 1-23.27147842-23.4670377c0-12.94598232 10.3646083-23.38881416 23.27147842-23.38881416h393.73777793c12.90687099 0 23.31059062 10.44283184 23.31059062 23.42792637 0 12.98509365-10.3646083 23.42792549-23.31059062 23.42792549z m36.60857842 133.95767256H248.54211634V204.75781191c0-64.92547002 52.56616377-117.80452793 117.13962832-117.80452881H936.47832083V195.37099648h-51.78393018V138.93277167H365.68174466c-36.10012588 0-65.3165877 29.52935596-65.3165877 65.7077045v696.42344971h519.0517582c36.10012588 0 65.3165877-29.52935596 65.3165877-65.70770537v-19.94698125h51.7839293v19.94698125c0 64.92547002-52.52705244 117.80452793-117.100517 117.80452881z" fill="#333333" p-id="5635"></path></svg>