<?xml version="1.0" standalone="no"?><!DOCTYPE svg PUBLIC "-//W3C//DTD SVG 1.1//EN" "http://www.w3.org/Graphics/SVG/1.1/DTD/svg11.dtd"><svg t="1600847133176" class="icon" viewBox="0 0 1024 1024" version="1.1" xmlns="http://www.w3.org/2000/svg" p-id="14810" xmlns:xlink="http://www.w3.org/1999/xlink" width="200" height="200"><defs><style type="text/css"></style></defs><path  d="M959.1 556.4c0-0.3 0.1-0.6 0.1-0.9 0-24.8-20.1-44.9-44.9-44.9H513.2v-401c0-24.8-20.1-44.9-44.9-44.9-1.7 0-3.2 0.3-4.8 0.5l-0.1-1C235.7 89.4 64 281.3 64 510.6c0 247.7 201.5 449.2 449.2 449.2 231.4 0 423.5-173.4 446.8-403.3l-0.9-0.1zM513.2 870C315 870 153.8 708.8 153.8 510.6c0-166.3 112.9-307.6 269.5-347.7v392.6c0 24.8 20.1 44.9 44.9 44.9h392.6C820.9 757.2 679.9 870 513.2 870z" p-id="14811"></path><path d="M628 431.8h285.3c21.1 0 38.6-14.6 43.5-34.2l0.8 0.1c0.3-3.2 0.3-6.6 0.5-9.9 0-0.3 0.1-0.6 0.1-1v-0.3c0.4-6.6 1-13.1 1-19.8 0-166.8-135.7-302.6-302.6-302.6-11.2 0-22.5 0.6-33.6 1.8v0.2c-22.5 2.5-40 21.3-40 44.4v265.9c0 1.8 0.3 3.4 0.5 5.1-0.2 1.7-0.5 3.4-0.5 5.1 0.1 25.1 20.2 45.2 45 45.2z m44.9-276.9C774.3 162.6 856 241.7 867.8 342H672.9V154.9z" p-id="14812"></path></svg>